<svg width="570" height="264" xmlns="http://www.w3.org/2000/svg">
 <g>
  <title>Layer 1</title>
  <metadata id="svg_24" stroke="null">image/svg+xmlGroup 26</metadata>
  <metadata id="svg_36" stroke="null">image/svg+xmlGroup 26</metadata>
  <!-- Generator: Sketch 51.3 (57544) - http://www.bohemiancoding.com/sketch -->
  <desc id="svg_34" stroke="null">Created with Sketch.</desc>
  <path d="m204.78816,113.98843l14.15285,0c2.08226,0 3.79034,0.26868 5.12431,0.80604c1.33394,0.53736 2.36693,1.21313 3.09899,2.02732c0.73204,0.81419 1.23632,1.70977 1.51289,2.68679c0.27654,0.97704 0.41483,1.88891 0.41483,2.73565c0,1.27014 -0.21962,2.40998 -0.65885,3.41957c-0.43923,1.00961 -1.00046,1.86449 -1.6837,2.56468c-0.68325,0.70021 -1.42341,1.27012 -2.22053,1.70979c-0.79712,0.43965 -1.55356,0.7409 -2.26935,0.90373c0.52058,0 1.09808,0.1547 1.73252,0.4641c0.63442,0.30938 1.2282,0.75718 1.7813,1.34338c0.5531,0.58623 1.02486,1.31084 1.41529,2.17387c0.39041,0.86306 0.58563,1.8482 0.58563,2.95549c0,0.84676 -0.15454,1.86447 -0.46363,3.05318c-0.30909,1.18873 -0.91099,2.32857 -1.8057,3.41957c-0.89474,1.09102 -2.14733,2.01917 -3.75784,2.78452c-1.61051,0.76533 -3.70087,1.14799 -6.27116,1.14799l-14.29926,0l3.61142,-34.19566l-0.00001,-0.00001zm11.12707,13.92252c1.07366,0 1.94397,-0.1547 2.61094,-0.4641c0.66697,-0.30938 1.18755,-0.69204 1.56171,-1.14799c0.37416,-0.45595 0.63442,-0.94445 0.78084,-1.46553c0.14642,-0.52107 0.21962,-0.99329 0.21962,-1.41667c0,-0.39081 -0.05695,-0.7979 -0.17082,-1.22128c-0.11387,-0.42338 -0.33349,-0.81419 -0.65885,-1.17243c-0.32536,-0.35824 -0.76457,-0.65134 -1.31767,-0.87931c-0.5531,-0.22796 -1.28515,-0.34197 -2.19613,-0.34197l-4.7339,0l-0.82964,8.10927l4.73387,0l0.00002,0l0.00001,0.00001zm-5.36832,5.81325l-0.87846,8.40237l4.92909,0c1.07368,0 1.95212,-0.1547 2.63536,-0.4641c0.68325,-0.30938 1.22007,-0.69204 1.61051,-1.14799c0.39041,-0.45595 0.6507,-0.94445 0.78084,-1.46553c0.13014,-0.52107 0.19522,-0.99329 0.19522,-1.41667c0,-0.42338 -0.06507,-0.86303 -0.19522,-1.31898c-0.13014,-0.45595 -0.34976,-0.87931 -0.65885,-1.27012c-0.30909,-0.39081 -0.74017,-0.70833 -1.29327,-0.95259c-0.5531,-0.24426 -1.26887,-0.36639 -2.14733,-0.36639l-4.97789,0zm22.31419,-16.51163c0,-0.71648 0.13827,-1.3841 0.41483,-2.00287c0.27654,-0.6188 0.65882,-1.15614 1.14685,-1.61209c0.48803,-0.45595 1.04926,-0.82232 1.6837,-1.09915c0.63445,-0.27683 1.30954,-0.41523 2.02531,-0.41523c1.30144,0 2.35882,0.41523 3.17221,1.2457c0.81337,0.83046 1.22007,1.8482 1.22007,3.0532c0,0.71648 -0.1464,1.3841 -0.43923,2.00287c-0.29284,0.61877 -0.68325,1.16428 -1.17127,1.63651c-0.48803,0.47222 -1.04926,0.84676 -1.6837,1.12357c-0.63445,0.27683 -1.30954,0.41523 -2.02531,0.41523c-1.30142,0 -2.35067,-0.42336 -3.14779,-1.27012c-0.79712,-0.84676 -1.19567,-1.87262 -1.19567,-3.0776l0,-0.00002zm0.29281,7.42536l7.46686,0l-2.48894,23.54615l-7.46686,0l2.48894,-23.54615zm24.51034,23.54615c-0.5531,0.09771 -1.26075,0.18727 -2.12293,0.26868c-0.86219,0.08141 -1.86265,0.12213 -3.00137,0.12213c-0.84594,0 -1.74878,-0.06514 -2.70858,-0.19539c-0.95978,-0.13028 -1.81382,-0.46408 -2.56214,-1.00144c-0.74832,-0.53736 -1.33394,-1.36783 -1.7569,-2.49139c-0.42296,-1.12359 -0.53685,-2.66237 -0.34163,-4.61642l1.07368,-10.0633l-3.70902,0l0.58563,-5.56901l3.70902,0l0.73204,-6.98568l7.41806,0l-0.73204,6.98568l5.36832,0l-0.58565,5.56901l-5.36832,0l-0.87844,8.40237c-0.0976,0.91188 -0.08947,1.62836 0.0244,2.14943c0.11387,0.52109 0.30906,0.92002 0.58563,1.19685c0.27654,0.27683 0.61817,0.45595 1.02486,0.53736c0.40671,0.08141 0.83779,0.12213 1.29327,0.12213c0.35791,0 0.78899,-0.00824 1.29329,-0.02442c0.5043,-0.01625 0.93539,-0.05699 1.29327,-0.12213l-0.63445,5.71557l0.00002,-0.00002l-0.00002,-0.00001zm17.4339,-17.78174c-0.87846,0 -1.7081,0.17912 -2.48894,0.53736c-0.78086,0.35824 -1.44781,0.83861 -2.00092,1.44109c-0.55312,0.6025 -0.99233,1.30269 -1.31769,2.1006c-0.32536,0.7979 -0.48803,1.63651 -0.48803,2.51581c0,1.4981 0.44736,2.77637 1.34209,3.8348c0.89471,1.05845 2.13919,1.58766 3.73342,1.58766c0.87846,0 1.69995,-0.17912 2.46455,-0.53736c0.76459,-0.35824 1.43154,-0.83861 2.00092,-1.44111c0.56937,-0.60248 1.00861,-1.30269 1.31769,-2.10058c0.30909,-0.7979 0.46363,-1.63651 0.46363,-2.51581c0,-1.4981 -0.43923,-2.77637 -1.31769,-3.8348c-0.87846,-1.05845 -2.11479,-1.58766 -3.70902,-1.58766l-0.00001,0zm-5.36832,-2.39369c0.74832,-1.10729 1.81382,-2.04361 3.19659,-2.80894c1.38276,-0.76533 2.96883,-1.14801 4.7583,-1.14801c1.46409,0 2.80616,0.27683 4.02623,0.83049c1.22007,0.55364 2.26933,1.32711 3.14779,2.32042c0.87846,0.99329 1.56168,2.17385 2.04974,3.5417c0.48803,1.36783 0.73202,2.84961 0.73202,4.44542c0,1.88891 -0.33346,3.66383 -1.00046,5.32475c-0.66697,1.66095 -1.56981,3.10202 -2.70856,4.32332c-1.13873,1.22128 -2.46452,2.182 -3.97743,2.8822c-1.51291,0.70019 -3.11524,1.05028 -4.80709,1.05028c-1.88704,0 -3.43246,-0.39894 -4.63628,-1.19683c-1.2038,-0.79792 -2.04971,-1.71792 -2.53774,-2.7601l-1.46409,14.02023l-7.46686,0l3.61142,-34.19566l7.46686,0l-0.39043,3.3707l0,0.00002l-0.00001,0.00001zm32.26999,14.41102c0.87846,0 1.69998,-0.17912 2.46455,-0.53736c0.76459,-0.35824 1.43156,-0.83861 2.00094,-1.44111c0.56935,-0.60248 1.00858,-1.30269 1.31767,-2.10058c0.30909,-0.7979 0.46363,-1.63651 0.46363,-2.51581c0,-1.4981 -0.44736,-2.77637 -1.34209,-3.8348c-0.89471,-1.05845 -2.13919,-1.58766 -3.73342,-1.58766c-0.87846,0 -1.69995,0.17912 -2.46455,0.53736c-0.76459,0.35824 -1.43154,0.84674 -2.00092,1.46553c-0.56937,0.61877 -1.00861,1.32711 -1.31769,2.125c-0.30909,0.79792 -0.46363,1.63651 -0.46363,2.51584c0,1.46553 0.44736,2.7275 1.34209,3.78593c0.89471,1.05845 2.13919,1.58766 3.73342,1.58766zm14.88489,-17.78174l-2.48894,23.54615l-7.46686,0l0.39043,-3.32186c-0.74832,1.10729 -1.81382,2.03544 -3.19659,2.7845c-1.38276,0.74905 -2.95257,1.12357 -4.70948,1.12357c-1.46411,0 -2.80618,-0.27681 -4.02625,-0.83046c-1.22007,-0.55364 -2.26933,-1.32711 -3.14779,-2.32042c-0.87846,-0.99329 -1.56168,-2.17385 -2.04971,-3.5417c-0.48803,-1.36783 -0.73204,-2.84961 -0.73204,-4.44542c0,-1.88891 0.33349,-3.6638 1.00046,-5.32475c0.66697,-1.66095 1.56981,-3.10204 2.70856,-4.32332c1.13875,-1.22128 2.46455,-2.182 3.97743,-2.8822c1.51291,-0.70019 3.11524,-1.0503 4.80709,-1.0503c1.82199,0 3.33486,0.38269 4.53868,1.14801c1.2038,0.76533 2.06599,1.70162 2.58654,2.80892l0.34163,-3.3707l7.46683,0l0.00001,-0.00002zm17.2875,5.76441c-0.87846,0 -1.7081,0.17912 -2.48894,0.53736c-0.78084,0.35824 -1.44781,0.83861 -2.00092,1.44109c-0.5531,0.6025 -0.99233,1.30269 -1.31769,2.1006c-0.32534,0.7979 -0.48803,1.63651 -0.48803,2.51581c0,1.4981 0.44736,2.77637 1.34209,3.8348c0.89471,1.05845 2.13919,1.58766 3.73342,1.58766c0.87846,0 1.69998,-0.17912 2.46455,-0.53736c0.76459,-0.35824 1.43156,-0.83861 2.00094,-1.44111c0.56935,-0.60248 1.00858,-1.30269 1.31767,-2.10058c0.30909,-0.7979 0.46363,-1.63651 0.46363,-2.51581c0,-1.4981 -0.43923,-2.77637 -1.31769,-3.8348c-0.87844,-1.05845 -2.11479,-1.58766 -3.70902,-1.58766l-0.00001,0zm-5.36832,-2.39369c0.74832,-1.10729 1.81385,-2.04361 3.19659,-2.80894c1.38276,-0.76533 2.96885,-1.14801 4.7583,-1.14801c1.46409,0 2.80616,0.27683 4.02623,0.83049c1.2201,0.55364 2.26935,1.32711 3.14779,2.32042c0.87846,0.99329 1.56171,2.17385 2.04974,3.5417c0.48803,1.36783 0.73204,2.84961 0.73204,4.44542c0,1.88891 -0.33349,3.66383 -1.00046,5.32475c-0.66699,1.66095 -1.56983,3.10202 -2.70858,4.32332c-1.13873,1.22128 -2.46452,2.182 -3.97743,2.8822c-1.51289,0.70019 -3.11524,1.05028 -4.80709,1.05028c-1.88704,0 -3.43246,-0.39894 -4.63628,-1.19683c-1.2038,-0.79792 -2.04971,-1.71792 -2.53774,-2.7601l-1.46409,14.02023l-7.46686,0l3.61142,-34.19566l7.46686,0l-0.39043,3.3707l0,0.00002l-0.00001,0.00001zm26.95049,10.20983c-0.0325,0.65134 0,1.28641 0.09751,1.90519c0.09773,0.6188 0.31721,1.17243 0.65885,1.66093c0.34161,0.48852 0.82152,0.88746 1.43969,1.19685c0.61817,0.3094 1.43154,0.46408 2.44015,0.46408c1.36649,0 2.39947,-0.26053 3.09897,-0.7816c0.69952,-0.52109 1.22822,-1.15614 1.58611,-1.90519l7.32044,0c-0.29281,1.10729 -0.78899,2.14943 -1.48849,3.12646c-0.69952,0.97702 -1.58608,1.8319 -2.65976,2.56466c-1.07368,0.73278 -2.31,1.31084 -3.70902,1.73422c-1.39904,0.42338 -2.94445,0.63507 -4.63628,0.63507c-1.88707,0 -3.54635,-0.26868 -4.97791,-0.80604c-1.43156,-0.53736 -2.62721,-1.29454 -3.587,-2.27158c-0.95981,-0.97702 -1.6837,-2.14128 -2.17173,-3.49283c-0.48803,-1.35155 -0.73204,-2.84149 -0.73204,-4.46987c0,-1.88891 0.31721,-3.6638 0.95166,-5.32475c0.63442,-1.66093 1.53729,-3.11832 2.70856,-4.37216c1.17127,-1.25384 2.60282,-2.24713 4.29464,-2.97991c1.69185,-0.73276 3.61142,-1.09915 5.75875,-1.09915c1.78945,0 3.38366,0.26053 4.78267,0.78162c1.39904,0.52109 2.57029,1.2294 3.51382,2.12503c0.94353,0.8956 1.66743,1.96216 2.17173,3.19973c0.5043,1.23757 0.75644,2.57281 0.75644,4.00577c0,0.74905 -0.06501,1.44111 -0.19524,2.07616c-0.13023,0.63507 -0.29281,1.31084 -0.48803,2.02732l-16.9346,0l0.00011,0l0,-0.00001zm5.95395,-9.23282c-1.39902,0 -2.62721,0.41523 -3.68462,1.2457c-1.0574,0.83046 -1.66743,2.05987 -1.83012,3.68825l9.8582,0c0.16274,-1.59581 -0.17075,-2.81707 -1.00046,-3.66383c-0.82966,-0.84676 -1.94397,-1.27012 -3.34301,-1.27012l0.00001,0zm32.41641,2.44255c-0.48803,-0.13028 -0.91099,-0.21984 -1.26887,-0.26868c-0.35789,-0.04884 -0.76459,-0.07326 -1.22007,-0.07326c-2.24495,0 -4.0181,0.61875 -5.31952,1.85632c-1.30142,1.23757 -2.09853,3.25672 -2.39135,6.05751l-0.97606,9.184l-7.46686,0l2.48897,-23.54617l7.46683,0l-0.43923,3.81038c0.32536,-0.55364 0.75644,-1.08285 1.29329,-1.58764c0.53683,-0.50479 1.13873,-0.95259 1.8057,-1.3434c0.66697,-0.39081 1.39902,-0.70021 2.19613,-0.92817c0.79712,-0.22796 1.61863,-0.34195 2.46455,-0.34195c0.78086,0 1.48036,0.13026 2.09853,0.39079l-0.73204,6.79029l0,-0.00002z" id="svg_32" fill="#009688" stroke="null"/>
  <g transform="matrix(0.251572 0 0 0.251572 -167.136 -118.085)" id="svg_28" stroke="null">
   <path id="svg_31" d="m1097.85151,1140.75701c0,0 10.43181,-16.6909 -3.33818,-27.53998c-13.76999,-10.84909 -73.43994,-38.38907 -74.27449,-125.18173c-0.83454,-86.79266 88.46175,-131.85807 133.94445,-130.60626c45.48269,1.25182 130.92582,41.29442 131.02354,130.60626c0.10124,92.54191 -60.4932,139.25279 -129.8314,139.25279c-12.28304,0.10896 -22.74837,8.86292 -22.8372,21.45267c0.11197,9.00564 3.8314,22.53599 23.60016,22.24094c106.55954,0.34438 172.346,-92.34605 172.46466,-182.3718c-5.31327,-87.14349 -67.58272,-172.38243 -174.47943,-172.24989c-25.76706,-0.28655 -171.10291,15.43189 -175.82381,171.81165c-1.93395,64.06204 29.72611,103.9216 48.80957,125.28274c26.34124,29.48517 47.30714,35.83634 47.30714,35.83634c0,0 14.89653,4.87408 23.43499,-8.53373z" stroke-width="1px" fill-rule="evenodd" fill="#d4d8d8" stroke="null"/>
   <path id="svg_30" d="m1133.64703,1082.13625l0.83581,-188.05752c0,0 3.9708,-17.91975 19.92801,-18.21525c15.95721,-0.29551 21.27628,9.16062 21.27628,17.73023c0,8.56961 0.2955,187.94047 0.2955,187.94047c0,0 -11.22915,30.4369 -20.68527,30.4369c-9.45612,0 -21.65033,-29.83483 -21.65033,-29.83483z" stroke-width="1px" fill-rule="evenodd" fill="#d4d4d8" stroke="null"/>
   <ellipse ry="22.0679" rx="20.97832" cy="1149.75227" cx="1152.86007" id="svg_29" stroke-opacity="0.00392" stroke-miterlimit="4" stroke-linejoin="round" stroke-width="0.10184" fill="#00817e" stroke="#009588"/>
  </g>
 </g>

</svg>